HIERARCHY
ROOT Hips
{
  OFFSET 0 0 0
  CHANNELS 6 Xposition Yposition Zposition Zrotation Xrotation Yrotation
  JOINT Spine
  {
    OFFSET 0 10.1816 0.131521
    CHANNELS 3 Zrotation Xrotation Yrotation
    JOINT Spine1
    {
      OFFSET 0 10.0835 -1.0008
      CHANNELS 3 Zrotation Xrotation Yrotation
      JOINT Spine2
      {
        OFFSET 0 9.10001 -1.37342
        CHANNELS 3 Zrotation Xrotation Yrotation
        JOINT Neck
        {
          OFFSET 0 16.6717 -2.51617
          CHANNELS 3 Zrotation Xrotation Yrotation
          JOINT Head
          {
            OFFSET 0 9.61788 1.68501
            CHANNELS 3 Zrotation Xrotation Yrotation
            End Site
            {
              OFFSET 0 0 0
            }
          }
        }
        JOINT LeftShoulder
        {
          OFFSET 4.57045 10.946 -2.62799
          CHANNELS 3 Zrotation Xrotation Yrotation
          JOINT LeftArm
          {
            OFFSET 10.5924 -0.524583 -2.23212
            CHANNELS 3 Zrotation Xrotation Yrotation
            JOINT LeftForeArm
            {
              OFFSET 27.8415 -8.94286e-05 3.74589e-05
              CHANNELS 3 Zrotation Xrotation Yrotation
              JOINT LeftHand
              {
                OFFSET 28.3288 -1.74407e-05 3.78045e-05
                CHANNELS 3 Zrotation Xrotation Yrotation
                End Site
                {
                  OFFSET 0 0 0
                }
              }
            }
          }
        }
        JOINT RightShoulder
        {
          OFFSET -4.56997 10.9462 -2.62802
          CHANNELS 3 Zrotation Xrotation Yrotation
          JOINT RightArm
          {
            OFFSET -10.5928 -0.524798 -2.2321
            CHANNELS 3 Zrotation Xrotation Yrotation
            JOINT RightForeArm
            {
              OFFSET -27.8415 -3.30792e-05 1.16763e-05
              CHANNELS 3 Zrotation Xrotation Yrotation
              JOINT RightHand
              {
                OFFSET -28.3288 0 5.5816e-05
                CHANNELS 3 Zrotation Xrotation Yrotation
                End Site
                {
                  OFFSET 0 0 0
                }
              }
            }
          }
        }
      }
    }
  }
  JOINT LeftUpLeg
  {
    OFFSET 8.20778 -6.75171 -1.59956
    CHANNELS 3 Zrotation Xrotation Yrotation
    JOINT LeftLeg
    {
      OFFSET 0 -44.3705 0.284643
      CHANNELS 3 Zrotation Xrotation Yrotation
      JOINT LeftFoot
      {
        OFFSET 0 -44.4279 -2.98219
        CHANNELS 3 Zrotation Xrotation Yrotation
        JOINT LeftToeBase
        {
          OFFSET 0 -8.72867 10.7106
          CHANNELS 3 Zrotation Xrotation Yrotation
          End Site
          {
            OFFSET 0 0 0
          }
        }
      }
    }
  }
  JOINT RightUpLeg
  {
    OFFSET -8.2078 -6.75166 -1.59956
    CHANNELS 3 Zrotation Xrotation Yrotation
    JOINT RightLeg
    {
      OFFSET 0 -44.3705 0.286156
      CHANNELS 3 Zrotation Xrotation Yrotation
      JOINT RightFoot
      {
        OFFSET 0 -44.4277 -2.98379
        CHANNELS 3 Zrotation Xrotation Yrotation
        JOINT RightToeBase
        {
          OFFSET 0 -8.72867 10.7106
          CHANNELS 3 Zrotation Xrotation Yrotation
          End Site
          {
            OFFSET 0 0 0
          }
        }
      }
    }
  }
}
MOTION
Frames:	19
Frame Time:	0.0333333
2.54797 94.7757 209.926 -0.044533 29.9672 7.59647 2.59841 19.6625 0.185191 -0.33831 1.44231 0.272702 -0.343845 1.44669 0.255284 1.50614 -4.78928 -1.28071 0.256433 -13.7077 -5.01943 -0.0407913 -0.573647 13.5958 -26.9152 -19.7327 -85.5916 -0.000222084 6.80215e-07 -64.1539 71.2269 36.0641 -26.0506 -3.4561 -0.287594 -15.1666 17.3695 -27.8455 44.8017 4.14405e-06 -2.1971e-06 82.3232 -78.0534 12.4117 28.6175 -4.57577 -9.71524 5.84188 2.42452 6.06589 -9.6482 3.1594 -20.8432 -1.55461 -2.47126 -4.12178 -0.115774 -11.4935 -65.7282 -7.60262 1.14368 40.9964 -10.6193 0.898629 -14.9677 -4.57698 1.47634e-06 -7.2007 7.27158e-06 
2.15104 93.7964 212.73 0.0616093 29.5339 8.25381 2.47519 19.3393 -0.0728208 -0.314301 1.37759 0.214331 -0.318484 1.38094 0.198283 1.28311 -4.22889 -1.32259 0.334473 -13.7621 -5.46751 0.00423753 -0.59487 13.8821 -27.0753 -19.4913 -86.6356 -0.000218794 -1.37302e-07 -62.498 71.2153 34.7949 -26.3665 -3.44609 -0.322724 -15.6916 17.769 -27.3672 45.8152 3.80999e-05 -2.78271e-06 82.3002 -77.7797 13.1302 28.3344 -3.88811 -7.25395 7.01435 2.1337 5.69466 -9.97431 2.09104 -20.9941 -3.288 -2.13226 -5.86122 -0.13196 -11.4491 -66.2784 -7.32977 0.740706 44.0677 -10.3134 1.63976 -12.281 -4.40602 1.05333e-07 -6.75942 -2.23561e-06 
1.73736 92.8153 215.699 0.208426 29.4697 8.62941 2.2065 18.6009 -0.298814 -0.3099 1.26295 0.158903 -0.312894 1.26531 0.144403 0.981762 -3.72413 -1.29656 0.163911 -13.7937 -5.65095 -0.0316519 -0.645403 14.4061 -27.1343 -19.1033 -87.2864 -0.000211993 4.5773e-06 -61.2585 71.0552 33.7174 -26.5745 -3.37286 -0.369892 -16.2262 18.0649 -26.5949 47.118 1.52133e-05 3.0764e-06 82.3093 -77.4838 13.9666 28.1454 -3.20268 -5.54301 7.95429 1.93986 6.0906 -10.2019 0.620556 -20.1955 -5.04321 -1.22425 -9.03517 -0.0955426 -11.5967 -66.4725 -7.67202 0.915337 48.1398 -10.2396 2.03173 -12.92 -3.58134 -3.64981e-07 -5.87689 -9.31755e-07 
1.30699 92.0723 218.71 0.136576 29.7649 8.94767 2.04353 17.624 -0.36482 -0.345734 1.08445 0.138868 -0.348462 1.08636 0.124801 0.71896 -3.39015 -1.26331 0.277695 -13.5878 -5.74284 -0.12727 -0.709316 15.0157 -26.8503 -18.6759 -87.4352 -0.00020774 5.68469e-07 -60.5358 70.5991 32.9874 -26.5096 -3.22311 -0.42445 -16.6388 18.087 -25.6598 48.1624 3.54141e-06 -5.73793e-07 82.4391 -77.2652 14.7696 28.1224 -2.55882 -4.4317 8.4776 2.16031 6.75768 -10.3437 -1.02173 -19.1189 -6.45426 -0.0944601 -10.7034 -0.00943399 -11.4526 -66.4178 -7.86961 1.15907 51.3703 -10.2198 2.20404 -15.0892 -4.1817 9.45198e-08 -5.21459 2.11098e-06 
0.854276 91.5698 221.791 -0.262591 30.1964 9.18746 2.13185 16.5555 -0.155064 -0.380959 0.916487 0.174432 -0.384659 0.918835 0.160852 0.579685 -3.33734 -1.26711 0.411049 -13.2153 -5.86761 -0.270272 -0.774422 15.5616 -26.2027 -18.2795 -87.1279 -0.000201288 -6.64729e-07 -60.274 70.0678 32.4446 -26.2697 -3.02993 -0.477013 -16.8842 17.8741 -24.7102 48.6549 1.51138e-05 2.5657e-06 82.8469 -77.0892 15.4658 28.1426 -1.75891 -3.60259 8.89427 2.60791 7.35064 -10.4296 -2.52307 -17.0459 -7.48457 1.0212 -12.4679 0.130934 -10.8943 -65.8908 -7.95169 2.10943 53.4041 -10.8518 2.0019 -17.0756 -3.97407 -1.694e-06 -4.46311 -1.29946e-06 
0.352545 91.2331 224.942 -0.685294 30.5657 9.16809 2.13692 15.5815 0.159104 -0.363902 0.816791 0.220258 -0.368579 0.819647 0.208626 0.535672 -3.39514 -1.28277 0.306342 -13.0457 -5.95125 -0.443721 -0.841232 16.0322 -25.3882 -17.8932 -86.5603 -0.000222227 -8.31774e-07 -60.2857 69.8193 31.8558 -26.1012 -2.81938 -0.520263 -16.9655 17.641 -23.7639 48.7944 1.15899e-05 3.38173e-06 83.4425 -76.931 16.0725 28.1887 -0.903983 -2.81366 9.28104 3.08684 7.92018 -10.4749 -3.91294 -13.9858 -8.22867 2.24443 -14.5424 0.375603 -9.62553 -64.9046 -7.43893 3.257 54.9222 -11.8163 1.61456 -20.1891 -3.5898 9.40014e-07 -3.97525 -2.10146e-06 
-0.191281 91.0091 228.04 -1.08331 30.8585 9.03427 2.02342 14.6941 0.363272 -0.341793 0.763507 0.240895 -0.346686 0.766435 0.23098 0.731318 -3.38233 -1.31062 0.201379 -12.6202 -5.87661 -0.596014 -0.91217 16.5299 -24.6267 -17.4761 -85.94 -0.000192298 4.60103e-07 -60.4426 69.7894 31.3075 -26.0053 -2.61398 -0.548835 -16.8571 17.4771 -22.7741 48.841 2.65323e-05 3.35117e-06 83.9975 -76.8605 16.6273 28.3035 0.144462 -3.51862 9.45919 3.64149 11.307 -10.5521 -5.19031 -11.2571 -8.69725 3.71659 -15.9507 0.735201 -7.64243 -63.5895 -6.1459 4.00844 55.7743 -12.5163 1.28751 -22.9069 -3.51548 -8.90603e-08 -3.51883 1.1953e-06 
-0.738061 90.8792 231.064 -1.55031 31.0985 9.04155 2.0087 13.8329 0.400879 -0.346021 0.720838 0.232342 -0.350307 0.723629 0.223268 1.04069 -3.17036 -1.34288 0.200583 -12.1541 -5.71837 -0.658435 -0.975919 17.0638 -23.9971 -17.066 -85.2855 -0.000199712 -5.82163e-06 -60.7354 69.5823 31.0075 -25.7803 -2.46373 -0.557227 -16.5683 17.2746 -21.7659 48.7995 1.7463e-05 4.83601e-08 84.4272 -76.9609 17.1354 28.4809 1.22122 -4.9693 9.43183 4.38708 15.7772 -10.6752 -6.11719 -7.99257 -8.76164 4.91173 -17.2172 1.01496 -5.31036 -62.0058 -4.40936 4.47609 56.0706 -12.9285 0.913835 -25.2779 -3.84198 -8.76002e-07 -3.06551 8.01064e-07 
-1.26603 90.8301 233.939 -1.93928 31.2098 9.11062 2.11283 13.2609 0.393455 -0.349642 0.686193 0.217587 -0.353244 0.688979 0.209316 1.19008 -3.04416 -1.33892 0.101238 -11.9538 -5.53119 -0.605102 -1.01823 17.5459 -23.5082 -16.7344 -84.5678 -0.000209738 3.56398e-07 -61.0688 69.0254 30.9478 -25.4245 -2.41507 -0.542641 -16.1655 16.98 -20.8579 48.5959 8.206e-06 2.7724e-09 84.7884 -77.2658 17.5807 28.7667 2.05722 -6.98222 9.06695 5.55806 20.907 -10.8044 -6.99999 -3.95315 -8.4536 5.96279 -18.2694 1.02146 -3.12454 -60.1449 -2.74691 4.69071 55.9387 -13.123 0.503712 -27.3199 -4.30636 2.14159e-07 -2.75284 -2.47924e-06 
-1.75118 90.8404 236.666 -2.19769 31.1798 8.90113 2.27937 13.0123 0.607744 -0.351436 0.680201 0.249212 -0.355333 0.683497 0.241392 1.21682 -3.13506 -1.31517 -0.124031 -11.9276 -5.3669 -0.48669 -1.04744 18.0087 -23.2056 -16.4635 -83.9356 -0.00020805 1.10495e-06 -61.2572 68.3101 31.0928 -25.1535 -2.45818 -0.505067 -15.6378 16.727 -20.1863 48.2227 -4.33879e-06 -5.64485e-06 85.2091 -77.6798 18.0081 29.2358 2.73836 -8.85535 8.55051 6.64502 25.5251 -10.5566 -7.76805 -0.695488 -7.84969 6.06755 -17.2914 1.0812 -0.780804 -58.0397 -0.818849 4.5968 55.4393 -13.0658 0.0971335 -29.0393 -4.79668 9.27656e-07 -2.47379 1.27247e-06 
-2.17486 90.9576 239.277 -2.42432 31.0736 8.22054 2.49956 13.0038 1.10056 -0.371033 0.716742 0.339411 -0.376254 0.721379 0.331421 1.26195 -3.29923 -1.31173 -0.425984 -12.0471 -5.29819 -0.397402 -1.09048 18.5969 -23.0621 -16.1955 -83.5207 -0.000215657 3.1312e-06 -61.2683 67.7231 31.445 -25.0641 -2.52608 -0.449753 -14.9035 16.6952 -19.8149 47.769 4.16594e-05 4.92548e-06 85.8159 -77.9551 18.514 29.8408 3.44304 -10.4894 8.21084 7.38894 29.3717 -10.0172 -7.70723 0.563812 -7.07963 3.90765 -14.5341 0.837495 1.57336 -55.6414 1.08992 4.49032 54.3813 -13.0272 -0.304349 -30.3778 -4.96747 6.79111e-07 -2.28367 -4.22022e-06 
-2.5438 91.2175 241.804 -2.66937 30.9979 7.27481 2.7362 13.1023 1.59201 -0.358057 0.761789 0.42771 -0.364726 0.767687 0.420237 1.32029 -3.32994 -1.27636 -0.883789 -12.1759 -5.05224 -0.388685 -1.15845 19.3362 -22.918 -15.9735 -83.1661 -0.000205943 -1.56585e-06 -61.2664 67.4239 31.6931 -25.0422 -2.54222 -0.393629 -14.053 16.935 -19.6972 47.5373 3.13224e-05 1.02192e-07 86.5139 -77.9634 19.0546 30.4971 4.29775 -12.2884 8.19694 7.86416 32.5013 -9.15588 -7.49082 2.79253 -6.2344 0.506507 -14.8541 0.127406 3.50194 -52.9829 2.52011 4.49243 52.6748 -13.0818 -0.655666 -31.3292 -4.61101 -1.71433e-07 -2.16628 1.25047e-06 
-2.83918 91.4016 244.08 -2.96829 31.0814 6.39569 3.02114 13.1134 1.93254 -0.310903 0.799121 0.480478 -0.318619 0.805368 0.474058 1.37524 -3.2897 -1.19223 -1.51798 -12.3428 -4.55786 -0.406195 -1.22879 20.0772 -22.6816 -15.9162 -82.6347 -0.000210863 -1.47576e-06 -61.3406 67.4856 31.3664 -25.0477 -2.49018 -0.357609 -13.4141 17.3725 -19.7456 47.9399 2.20449e-05 6.07188e-06 86.9855 -77.9049 19.4372 31.225 5.71344 -16.9276 8.39212 8.12656 39.8388 -9.06223 -7.19896 3.56429 -5.33997 1.53443e-06 -15.4525 -4.18621e-07 4.82324 -50.6619 3.29773 4.59069 51.0063 -13.2575 -0.826367 -32.1225 -3.76871 1.7298e-07 -2.01389 2.08856e-06 
-3.09336 91.5857 246.153 -3.12546 31.1732 5.58528 3.19213 13.3477 2.24813 -0.303572 0.838013 0.529151 -0.312352 0.844629 0.522709 1.42915 -3.32079 -1.15561 -2.0782 -12.7271 -4.31343 -0.347883 -1.26792 20.6525 -22.5013 -16.0726 -82.0152 -0.000201151 -6.69257e-06 -61.2594 68.0593 30.4338 -25.399 -2.43118 -0.347404 -13.2273 17.9483 -19.9336 49.0957 3.22651e-05 5.31874e-06 87.0693 -77.987 19.6812 31.9825 7.0576 -22.215 8.62824 8.32927 47.2847 -9.35421 -6.89924 4.19632 -4.20333 1.12223e-06 -13.8333 -1.64382e-06 5.59289 -48.4543 3.58782 4.673 49.3001 -13.42 -0.895374 -32.7521 -2.99576 -1.46705e-06 -1.94022 1.68577e-06 
-3.31726 91.7646 248.038 -3.19706 31.0954 4.87332 3.32168 13.9338 2.54859 -0.301318 0.89513 0.577853 -0.311184 0.902341 0.57084 1.33137 -3.38811 -1.15036 -2.51497 -13.1571 -4.39014 -0.180795 -1.26545 21.0138 -22.6243 -16.362 -81.6744 -0.000211659 3.18075e-06 -60.6861 69.1779 29.3124 -26.4559 -2.41965 -0.348436 -13.3444 18.6603 -20.2944 50.6955 -2.96836e-06 -4.34195e-06 86.8318 -78.1969 19.9912 32.6569 8.0097 -27.6281 8.60217 8.43706 53.981 -10.1854 -6.35861 5.99408 -2.59783 7.03535e-07 -8.44224 -3.80655e-07 6.2511 -46.2024 3.87316 4.47448 47.6323 -13.208 -0.962433 -33.2405 -2.47088 -6.76827e-07 -1.87366 -8.47465e-07 
-3.488 91.9396 249.821 -3.22745 31.0098 4.21549 3.43022 14.5061 2.82021 -0.293973 0.958033 0.622255 -0.304858 0.965958 0.614586 1.24065 -3.48086 -1.15468 -3.04749 -13.3991 -4.49924 0.0531744 -1.23615 21.2348 -23.0867 -16.675 -81.7698 -0.000203026 -6.35429e-06 -59.7206 70.3882 28.4155 -27.8924 -2.44564 -0.339169 -13.3564 19.4556 -20.8537 52.2632 5.06034e-06 4.43367e-06 86.2877 -78.5532 20.2604 33.3606 8.66622 -32.8264 8.52302 8.27633 59.2424 -10.6501 -8.03768 6.62033 0.454747 -2.8885e-06 -3.67819 8.68339e-07 6.90712 -44.0023 4.28431 4.07756 45.929 -12.758 -1.04466 -33.5905 -2.26537 9.83776e-08 -1.78833 -4.57553e-07 
-3.60506 92.1991 251.568 -3.18325 31.0789 3.51029 3.46139 14.9433 3.15045 -0.294893 0.98842 0.678364 -0.307022 0.997441 0.67023 1.19397 -3.61656 -1.15743 -3.49139 -13.7077 -4.56716 0.305516 -1.1973 21.4022 -23.6295 -17.0013 -82.0357 -0.000203765 -1.03388e-06 -58.9128 70.9948 27.8504 -28.7396 -2.49403 -0.306307 -12.9912 20.1832 -21.5938 53.3971 2.20118e-05 -3.99531e-06 85.53 -79.0942 20.1962 34.2513 9.38918 -37.605 8.82469 6.93914 62.9866 -7.71663 -7.89031 2.38056 0.586635 -1.52834 -3.85053 -0.0791776 7.50234 -41.8288 4.81477 3.54524 43.8585 -12.0549 -1.20379 -33.6609 -2.42144 -1.67314e-06 -1.82259 4.58691e-07 
-3.68754 92.5693 253.257 -3.02443 31.2615 2.72012 3.32187 15.383 3.53248 -0.284858 0.996349 0.737236 -0.298609 1.00609 0.729334 1.16819 -3.98566 -1.10746 -3.8358 -14.033 -4.38402 0.540444 -1.15538 21.5038 -23.9892 -17.4058 -82.1209 -0.000209265 -2.83251e-07 -58.6359 70.7722 27.4152 -28.4195 -2.58181 -0.254 -12.3351 20.7135 -22.4361 53.9507 1.51978e-05 -5.82145e-06 84.9387 -79.6087 19.9303 35.1106 10.1471 -42.4166 9.37896 4.64846 65.4936 -3.80762 -4.77443 -3.11432 0.11243 -3.13525 -4.21463 -0.131756 7.94425 -39.6029 5.32224 2.83 41.3367 -11.2057 -1.27988 -33.4083 -2.38569 1.55194e-06 -1.81095 -1.24949e-06 
-3.73505 93.082 254.927 -2.73409 31.5777 1.9204 3.02273 15.822 3.94798 -0.274078 1.00526 0.795511 -0.289638 1.01523 0.788144 1.10799 -4.66682 -1.03583 -4.13261 -14.3494 -4.15942 0.726104 -1.10901 21.4267 -24.1517 -17.9252 -81.9165 -0.000210797 3.4191e-06 -58.7065 70.3142 26.9057 -27.4962 -2.71114 -0.200479 -11.697 21.1027 -23.2602 54.2041 -5.62837e-07 -1.90882e-06 84.7588 -79.8506 19.9416 35.6294 10.6968 -47.2136 9.82855 2.22717 66.3439 0.702491 -3.39738 -7.23812 0.130837 -3.97653 -4.62585 -0.162073 8.00793 -37.2479 5.53905 2.16182 38.1544 -10.4712 -1.25083 -32.778 -2.08343 1.13902e-06 -1.77226 2.95701e-06 
